<?xml version="1.0" standalone="no"?>
<!DOCTYPE svg PUBLIC "-//W3C//DTD SVG 20010904//EN"
 "http://www.w3.org/TR/2001/REC-SVG-20010904/DTD/svg10.dtd">
<svg version="1.0" xmlns="http://www.w3.org/2000/svg"
 width="500.000000pt" height="500.000000pt" viewBox="0 0 500.000000 500.000000"
 preserveAspectRatio="xMidYMid meet">
<metadata>
Created by potrace 1.11, written by Peter Selinger 2001-2013
</metadata>
<g transform="translate(0.000000,500.000000) scale(0.100000,-0.100000)"
fill="#000000" stroke="none">
<path d="M2040 4944 c-25 -2 -108 -8 -185 -14 -77 -6 -214 -22 -305 -36 -981
-151 -1372 -600 -1480 -1701 -31 -323 -36 -930 -9 -1283 83 -1117 436 -1593
1319 -1776 289 -60 614 -84 1117 -84 564 0 872 27 1198 105 348 83 567 196
766 394 297 296 440 708 489 1416 13 192 14 835 0 1030 -44 641 -165 1054
-395 1351 -116 148 -249 254 -440 349 -247 123 -521 191 -950 236 -102 10
-1022 21 -1125 13z m502 -623 c626 -127 1123 -613 1258 -1230 64 -287 43 -618
-56 -891 -139 -387 -441 -723 -809 -900 -131 -63 -215 -92 -360 -126 -168 -38
-426 -45 -595 -15 l-115 20 -392 -259 c-215 -142 -401 -263 -412 -269 -19 -11
-20 -9 -15 36 2 27 16 243 30 481 l25 433 -67 72 c-86 93 -201 267 -257 387
-240 518 -196 1104 118 1576 254 382 671 640 1135 704 106 14 401 4 512 -19z
m1752 -1687 c176 -419 95 -911 -203 -1236 l-53 -58 22 -346 c11 -191 19 -348
18 -350 -2 -1 -136 85 -298 192 -286 189 -296 195 -335 189 -131 -21 -167 -25
-230 -25 -116 0 -358 43 -338 60 4 3 44 21 88 39 44 18 112 50 150 71 58 31
84 39 153 45 46 4 110 13 143 19 l59 13 202 -133 c112 -73 204 -132 205 -130
1 1 -4 107 -12 235 l-15 234 43 46 c111 118 186 249 233 406 25 81 28 106 28
250 1 138 -2 171 -22 238 -22 77 -22 81 -7 160 9 45 19 137 22 205 l6 124 52
-81 c29 -44 69 -119 89 -167z"/>
<path d="M2035 4005 c-289 -46 -537 -175 -742 -386 -236 -245 -378 -619 -360
-951 18 -315 140 -602 349 -824 l78 -82 -20 -322 c-11 -178 -18 -325 -16 -327
3 -3 129 77 280 177 l276 182 82 -17 c121 -26 350 -31 479 -11 355 56 676 266
875 571 97 149 146 267 186 446 32 145 32 376 -1 528 -24 116 -81 268 -138
368 -119 213 -338 421 -562 533 -216 108 -522 154 -766 115z m-423 -650 c59
-19 143 -41 186 -48 l77 -13 12 -130 c6 -71 11 -130 9 -131 -1 -1 -39 13 -84
31 -104 42 -292 155 -302 181 -11 30 -22 145 -14 145 4 0 56 -16 116 -35z
m1196 -66 c55 -27 82 -70 82 -129 0 -117 -128 -184 -247 -130 -112 50 -112
210 0 260 55 26 110 25 165 -1z m-1216 -914 c221 -210 394 -288 638 -287 245
1 430 85 647 295 118 114 147 109 108 -19 -42 -139 -229 -314 -424 -395 -268
-111 -554 -83 -808 80 -99 63 -221 188 -256 262 -40 85 -48 159 -16 159 6 0
56 -43 111 -95z"/>
</g>
</svg>
